/* XPM */
static const char * icon_xpm[] = {
"16 16 43 1",
" 	c None",
".	c #787878",
"+	c #747474",
"@	c #F0F0F0",
"#	c #FFFFFF",
"$	c #F8F8F8",
"%	c #BFBFBF",
"&	c #7E7E7E",
"*	c #808080",
"=	c #838383",
"-	c #8C8C8C",
";	c #FEFEFE",
">	c #DEDEDE",
",	c #848484",
"'	c #828282",
")	c #858585",
"!	c #CCCCCC",
"~	c #C1C1C1",
"{	c #FBFBFB",
"]	c #878787",
"^	c #F7F7F7",
"/	c #818181",
"(	c #797979",
"_	c #E9E9E9",
":	c #DBDBDB",
"<	c #7F7F7F",
"[	c #9A9A9A",
"}	c #B9B9B9",
"|	c #7F7E7E",
"1	c #CA6351",
"2	c #D2D2D2",
"3	c #8A776D",
"4	c #F3210A",
"5	c #ADADAD",
"6	c #EFEFEF",
"7	c #E3E3E3",
"8	c #A8A8A8",
"9	c #7B716C",
"0	c #706964",
"a	c #707070",
"b	c #777777",
"c	c #868686",
"d	c #7A7A7A",
"                ",
"     .......... ",
"   .+@####$%&*= ",
"  .-;#######>,' ",
"  )##########!) ",
" .~##########{. ",
" .############. ",
" .############] ",
" .############. ",
" .###########^/ ",
" (_##########:. ",
" <[;########},  ",
" |1%;######2},  ",
" 34156###78,,   ",
" 90abcddddd     ",
"                "};
