/* XPM */
static const char * left_xpm[] = {
"16 16 6 1",
" 	c None",
".	c #FFFFFF",
"+	c #000000",
"@	c #800080",
"#	c #585858",
"$	c #400000",
"                ",
"     ++++++     ",
"   #+@@@+++++   ",
"   +@@+   ++++  ",
"  +@@+  +   ++  ",
"  +@+   +    ++ ",
"+@@@@@+ +    ++ ",
" +@@@+ #++++ ++ ",
"  $@+   +    ++ ",
"   +    +    +  ",
"        +   ++  ",
"           ++   ",
"         +++    ",
"       +++      ",
"                ",
"                "};
