/* XPM */
static const char * right_xpm[] = {
"16 16 7 1",
" 	c None",
".	c #000000",
"+	c #FFFFFF",
"@	c #000000",
"#	c #800080",
"$	c #585858",
"%	c #400000",
"                ",
"     @@@@@@     ",
"   @@@@@###@$   ",
"  @@@@   @##@   ",
"  @@   @  @##@  ",
" @@    @   @#@  ",
" @@    @ @#####@",
" @@ @@@@$ @###@ ",
" @@    @   @#%  ",
"  @    @    @   ",
"  @@   @        ",
"   @@           ",
"    @@@         ",
"      @@@       ",
"                ",
"                "};
